<svg width="381" height="230" fill="none" xmlns="http://www.w3.org/2000/svg"><mask id="a" maskUnits="userSpaceOnUse" x="-40" y="-2" width="423" height="234" fill="#000"><path fill="#fff" d="M-40-2h423v234H-40z"/><path d="M-29.64 98V0h84v14h14v42h-14v14h-56v28h-28zm28-42h42V14h-42v42zm90.16 42V84h28V14h-14V0h42v84h28v14h-84zm104.16 0V84h-14V70h14V56h56V42h-56V28h70v14h14v56h-84zm14-14h42V70h-42v14zm90.16 28V98h56V84h-56V70h-14V28h28v42h42V28h28v70h-14v14h-70zM-37.48 230v-98h98v14h-70v28h56v14h-56v28h70v14h-98zm118.16 0v-14h-14v-14h14v-14h56v-14h-56v-14h70v14h14v56h-84zm14-14h42v-14h-42v14zm118.16-42h14v14h-14v42h-28v-70h28v14zm56-14v14h-42v-14h42zm6.16 70v-70h84v14h14v56h-28v-56h-42v56h-28z"/></mask><path d="M-29.64 98h-2v2h2v-2zm0-98v-2h-2v2h2zm84 0h2v-2h-2v2zm0 14h-2v2h2v-2zm14 0h2v-2h-2v2zm0 42v2h2v-2h-2zm-14 0v-2h-2v2h2zm0 14v2h2v-2h-2zm-56 0v-2h-2v2h2zm0 28v2h2v-2h-2zm0-42h-2v2h2v-2zm42 0v2h2v-2h-2zm0-42h2v-2h-2v2zm-42 0v-2h-2v2h2zm-26 84V0h-4v98h4zm-2-96h84v-4h-84v4zm82-2v14h4V0h-4zm2 16h14v-4h-14v4zm12-2v42h4V14h-4zm2 40h-14v4h14v-4zm-16 2v14h4V56h-4zm2 12h-56v4h56v-4zm-58 2v28h4V70h-4zm2 26h-28v4h28v-4zm0-38h42v-4h-42v4zm44-2V14h-4v42h4zm-2-44h-42v4h42v-4zm-44 2v42h4V14h-4zm92.16 84h-2v2h2v-2zm0-14v-2h-2v2h2zm28 0v2h2v-2h-2zm0-70h2v-2h-2v2zm-14 0h-2v2h2v-2zm0-14v-2h-2v2h2zm42 0h2v-2h-2v2zm0 84h-2v2h2v-2zm28 0h2v-2h-2v2zm0 14v2h2v-2h-2zm-82 0V84h-4v14h4zm-2-12h28v-4h-28v4zm30-2V14h-4v70h4zm-2-72h-14v4h14v-4zm-12 2V0h-4v14h4zm-2-12h42v-4h-42v4zm40-2v84h4V0h-4zm2 86h28v-4h-28v4zm26-2v14h4V84h-4zm2 12h-84v4h84v-4zm20.16 2h-2v2h2v-2zm0-14h2v-2h-2v2zm-14 0h-2v2h2v-2zm0-14v-2h-2v2h2zm14 0v2h2v-2h-2zm0-14v-2h-2v2h2zm56 0v2h2v-2h-2zm0-14h2v-2h-2v2zm-56 0h-2v2h2v-2zm0-14v-2h-2v2h2zm70 0h2v-2h-2v2zm0 14h-2v2h2v-2zm14 0h2v-2h-2v2zm0 56v2h2v-2h-2zm-70-14h-2v2h2v-2zm42 0v2h2v-2h-2zm0-14h2v-2h-2v2zm-42 0v-2h-2v2h2zm-12 28V84h-4v14h4zm-2-16h-14v4h14v-4zm-12 2V70h-4v14h4zm-2-12h14v-4h-14v4zm16-2V56h-4v14h4zm-2-12h56v-4h-56v4zm58-2V42h-4v14h4zm-2-16h-56v4h56v-4zm-54 2V28h-4v14h4zm-2-12h70v-4h-70v4zm68-2v14h4V28h-4zm2 16h14v-4h-14v4zm12-2v56h4V42h-4zm2 54h-84v4h84v-4zm-70-10h42v-4h-42v4zm44-2V70h-4v14h4zm-2-16h-42v4h42v-4zm-44 2v14h4V70h-4zm92.16 42h-2v2h2v-2zm0-14v-2h-2v2h2zm56 0v2h2v-2h-2zm0-14h2v-2h-2v2zm-56 0h-2v2h2v-2zm0-14h2v-2h-2v2zm-14 0h-2v2h2v-2zm0-42v-2h-2v2h2zm28 0h2v-2h-2v2zm0 42h-2v2h2v-2zm42 0v2h2v-2h-2zm0-42v-2h-2v2h2zm28 0h2v-2h-2v2zm0 70v2h2v-2h-2zm-14 0v-2h-2v2h2zm0 14v2h2v-2h-2zm-68 0V98h-4v14h4zm-2-12h56v-4h-56v4zm58-2V84h-4v14h4zm-2-16h-56v4h56v-4zm-54 2V70h-4v14h4zm-2-16h-14v4h14v-4zm-12 2V28h-4v42h4zm-2-40h28v-4h-28v4zm26-2v42h4V28h-4zm2 44h42v-4h-42v4zm44-2V28h-4v42h4zm-2-40h28v-4h-28v4zm26-2v70h4V28h-4zm2 68h-14v4h14v-4zm-16 2v14h4V98h-4zm2 12h-70v4h70v-4zM-37.48 230h-2v2h2v-2zm0-98v-2h-2v2h2zm98 0h2v-2h-2v2zm0 14v2h2v-2h-2zm-70 0v-2h-2v2h2zm0 28h-2v2h2v-2zm56 0h2v-2h-2v2zm0 14v2h2v-2h-2zm-56 0v-2h-2v2h2zm0 28h-2v2h2v-2zm70 0h2v-2h-2v2zm0 14v2h2v-2h-2zm-96 0v-98h-4v98h4zm-2-96h98v-4h-98v4zm96-2v14h4v-14h-4zm2 12h-70v4h70v-4zm-72 2v28h4v-28h-4zm2 30h56v-4h-56v4zm54-2v14h4v-14h-4zm2 12h-56v4h56v-4zm-58 2v28h4v-28h-4zm2 30h70v-4h-70v4zm68-2v14h4v-14h-4zm2 12h-98v4h98v-4zm20.16 2h-2v2h2v-2zm0-14h2v-2h-2v2zm-14 0h-2v2h2v-2zm0-14v-2h-2v2h2zm14 0v2h2v-2h-2zm0-14v-2h-2v2h2zm56 0v2h2v-2h-2zm0-14h2v-2h-2v2zm-56 0h-2v2h2v-2zm0-14v-2h-2v2h2zm70 0h2v-2h-2v2zm0 14h-2v2h2v-2zm14 0h2v-2h-2v2zm0 56v2h2v-2h-2zm-70-14h-2v2h2v-2zm42 0v2h2v-2h-2zm0-14h2v-2h-2v2zm-42 0v-2h-2v2h2zm-12 28v-14h-4v14h4zm-2-16h-14v4h14v-4zm-12 2v-14h-4v14h4zm-2-12h14v-4h-14v4zm16-2v-14h-4v14h4zm-2-12h56v-4h-56v4zm58-2v-14h-4v14h4zm-2-16h-56v4h56v-4zm-54 2v-14h-4v14h4zm-2-12h70v-4h-70v4zm68-2v14h4v-14h-4zm2 16h14v-4h-14v4zm12-2v56h4v-56h-4zm2 54h-84v4h84v-4zm-70-10h42v-4h-42v4zm44-2v-14h-4v14h4zm-2-16h-42v4h42v-4zm-44 2v14h4v-14h-4zm120.16-28h-2v2h2v-2zm14 0h2v-2h-2v2zm0 14v2h2v-2h-2zm-14 0v-2h-2v2h2zm0 42v2h2v-2h-2zm-28 0h-2v2h2v-2zm0-70v-2h-2v2h2zm28 0h2v-2h-2v2zm56 0h2v-2h-2v2zm0 14v2h2v-2h-2zm-42 0h-2v2h2v-2zm0-14v-2h-2v2h2zm-14 16h14v-4h-14v4zm12-2v14h4v-14h-4zm2 12h-14v4h14v-4zm-16 2v42h4v-42h-4zm2 40h-28v4h28v-4zm-26 2v-70h-4v70h4zm-2-68h28v-4h-28v4zm26-2v14h4v-14h-4zm56 0v14h4v-14h-4zm2 12h-42v4h42v-4zm-40 2v-14h-4v14h4zm-2-12h42v-4h-42v4zM275 230h-2v2h2v-2zm0-70v-2h-2v2h2zm84 0h2v-2h-2v2zm0 14h-2v2h2v-2zm14 0h2v-2h-2v2zm0 56v2h2v-2h-2zm-28 0h-2v2h2v-2zm0-56h2v-2h-2v2zm-42 0v-2h-2v2h2zm0 56v2h2v-2h-2zm-26 0v-70h-4v70h4zm-2-68h84v-4h-84v4zm82-2v14h4v-14h-4zm2 16h14v-4h-14v4zm12-2v56h4v-56h-4zm2 54h-28v4h28v-4zm-26 2v-56h-4v56h4zm-2-58h-42v4h42v-4zm-44 2v56h4v-56h-4zm2 54h-28v4h28v-4z" fill="#F3D84A" fill-opacity=".92" mask="url(#a)"/></svg>